<svg width="56" height="56" viewBox="0 0 56 56" fill="none" xmlns="http://www.w3.org/2000/svg">
<g clip-path="url(#clip0_2580_43563)">
<rect width="56" height="55.9978" fill="#EA6E55"/>
<path d="M20.2995 41.4414H23.0995L16.2395 56.0008H13.4395L20.2995 41.4414Z" fill="#FFF0BA"/>
<path d="M25.8534 24.924C27.0834 25.5747 28.2939 26.2136 29.4966 26.8487C29.5005 26.876 29.5083 26.8877 29.5044 26.8994C29.3287 27.3747 29.4654 27.6553 29.9535 27.8072C31.082 28.154 31.9294 27.4565 32.1598 26.4942C32.4409 25.3409 32.0895 24.3279 31.2773 23.4941C30.3088 22.5044 29.0905 22.1927 27.7472 22.3992C25.1192 22.8122 23.487 24.9045 23.1902 27.1799C22.8271 29.9501 24.3422 32.997 27.2552 34.349C29.5357 35.4049 31.8474 35.3465 34.1122 34.3412C37.1229 33.0048 38.9074 30.6554 39.5049 27.441C40.3288 22.9876 37.9195 18.1017 33.4367 15.9938C31.5155 15.086 29.4966 14.7509 27.3841 14.934C22.3585 15.3704 17.3134 18.9394 15.9427 25.037C15.2359 28.1735 15.6147 31.2203 16.9971 34.1074C19.1799 38.6583 22.8114 41.4246 27.7668 42.3519C31.9606 43.135 35.8694 42.2233 39.4658 39.9752C40.0828 39.5895 40.6451 39.1219 41.2308 38.6933C41.2699 38.6622 41.3128 38.631 41.3792 38.6271C41.2465 38.779 41.1176 38.9349 40.9809 39.083C38.3529 41.9116 35.1392 43.6727 31.3202 44.2961C22.6201 45.7066 14.2636 40.0219 12.4166 31.4385C10.6086 23.0265 15.482 14.673 23.7174 12.0897C26.115 11.3378 28.5595 11.1508 31.0469 11.5053C34.245 11.9612 37.0682 13.2547 39.5244 15.3431C40.2234 15.9392 40.7623 16.6756 41.2699 17.4315C42.6639 19.5082 43.5308 21.7875 43.7534 24.2772C44.1556 28.7891 42.7694 32.6697 39.4385 35.7828C37.4001 37.6842 34.9557 38.7985 32.1832 39.1414C28.8757 39.5505 25.869 38.779 23.2488 36.7101C20.8082 34.7932 19.3947 32.2567 19.0471 29.1787C18.6879 25.9838 19.6172 23.1824 21.9094 20.907C23.7525 19.0757 26.0252 18.1367 28.6336 18.203C31.5194 18.277 33.8233 19.5121 35.3305 22.0018C36.5254 23.9694 36.8105 26.1007 35.9397 28.2748C35.1822 30.1644 33.8115 31.4619 31.781 31.8983C29.8246 32.3191 28.0323 31.9216 26.5758 30.4761C25.1388 29.0501 24.8381 26.8137 25.787 25.0175C25.8104 24.9902 25.826 24.9668 25.8534 24.924Z" fill="white"/>
</g>
<defs>
<clipPath id="clip0_2580_43563">
<rect width="56" height="56" fill="white"/>
</clipPath>
</defs>
</svg>
