<svg width="869" height="480" viewBox="0 0 869 480" fill="none" xmlns="http://www.w3.org/2000/svg">
<path opacity="0.4" d="M376.242 211.519C399.014 188.722 446.491 193.74 459.687 217.562C467.128 227.764 474.33 235.615 479.767 237.303C511.442 247.013 535.226 227.485 541.692 200.538C549.584 168.246 539.72 139.882 516.922 116.536C489.741 88.8256 455.545 80.0981 417.842 85.8801C344.079 97.4441 298.265 156.028 289.935 219.739C279.742 297.305 322.268 382.617 404.032 420.473C468.039 450.038 532.924 448.401 596.494 420.255C680.997 382.835 731.085 317.051 747.855 227.048C770.981 102.353 703.356 -34.4512 577.532 -93.4713C523.608 -118.89 466.943 -128.272 407.649 -123.145C266.59 -110.926 124.984 -10.9959 86.5132 159.737C66.6752 247.558 77.3066 332.87 116.106 413.709C177.374 541.131 279.304 618.589 418.39 644.553C536.103 666.481 645.815 640.953 746.759 578.005C764.076 567.205 779.859 554.114 796.299 542.113C797.395 541.241 798.601 540.368 800.464 540.259C796.737 544.513 793.12 548.877 789.284 553.023C715.522 632.225 625.319 681.536 518.128 698.991C273.934 738.483 39.3842 579.315 -12.4578 338.979C-63.2038 103.444 73.5802 -130.454 304.732 -202.784C372.028 -223.839 440.639 -229.076 510.456 -219.148C600.22 -206.384 679.463 -170.165 748.403 -111.69C768.021 -94.9986 783.147 -74.3798 797.395 -53.2154C836.523 4.93193 860.855 68.7522 867.102 138.464C878.391 264.795 839.482 373.453 745.991 460.62C688.779 513.858 620.168 545.059 542.35 554.659C449.517 566.114 365.123 544.513 291.58 486.584C223.078 432.91 183.402 361.889 173.647 275.704C163.564 186.247 189.649 107.808 253.986 44.0968C305.718 -7.17759 369.507 -33.4693 442.721 -31.6147C523.718 -29.5419 588.383 5.04099 630.69 74.7524C664.228 129.845 672.229 189.52 647.788 250.395C626.525 303.305 588.054 339.634 531.061 351.853C476.15 363.635 425.843 352.507 384.961 312.033C354.84 282.215 353.47 234.315 376.242 211.519Z" fill="url(#paint0_radial_2593_43003)"/>
<defs>
<radialGradient id="paint0_radial_2593_43003" cx="0" cy="0" r="1" gradientUnits="userSpaceOnUse" gradientTransform="translate(423 240.5) rotate(-65.8686) scale(497.224 477.548)">
<stop stop-color="white"/>
<stop offset="1" stop-color="white" stop-opacity="0.23"/>
</radialGradient>
</defs>
</svg>
